<svg id="Layer_2" data-name="Layer 2" xmlns="http://www.w3.org/2000/svg" viewBox="0 0 466.77 136.4"><defs><style>.cls-1{fill:#56556e;}.cls-2{fill:#9cb88a;}.cls-3{fill:#3c2946;}</style></defs><path class="cls-1" d="M204.15,102.19V94.93h14.61V55.32H204.15V48.06h20.24l1.73,7h.54a39,39,0,0,1,8.23-5.74A23.13,23.13,0,0,1,245.71,47a10.87,10.87,0,0,1,5.9,1.41,9.34,9.34,0,0,1,3.46,4.11,21.53,21.53,0,0,1,1.68,6.55,78.07,78.07,0,0,1,.44,8.71l-7.58.11q0-6.87-1.35-10.09a4.93,4.93,0,0,0-4.93-3.22,17.75,17.75,0,0,0-6.06,1,19.58,19.58,0,0,0-4.71,2.38,25.54,25.54,0,0,0-3.41,2.8,17.28,17.28,0,0,0-2.06,2.38V94.93h20.79v7.26Z"/><path class="cls-2" d="M286.17,96.23A6.65,6.65,0,0,1,293.31,89a7.43,7.43,0,0,1,5.42,1.9,7.1,7.1,0,0,1,1.94,5.35,7.24,7.24,0,0,1-1.94,5.2,7.12,7.12,0,0,1-5.42,2.06,6.82,6.82,0,0,1-5.19-2.06A7.25,7.25,0,0,1,286.17,96.23Z"/><path class="cls-1" d="M324,26.41H342V84c0,4.4.74,7.51,2.22,9.31A8,8,0,0,0,350.8,96a15.55,15.55,0,0,0,5.79-1.09,25.36,25.36,0,0,0,6.12-3.68l3.9,6a24.12,24.12,0,0,1-3.8,2.7,28,28,0,0,1-8.58,3.25,20.57,20.57,0,0,1-4,.43,23.24,23.24,0,0,1-7.17-1,12.26,12.26,0,0,1-5.27-3.31,14.56,14.56,0,0,1-3.2-6A33.82,33.82,0,0,1,333.48,84V33.67H324Z"/><path class="cls-1" d="M418.07,48.06h15.48V85a75.81,75.81,0,0,0,.65,10.17h7.25v7H426.94l-.32-9.2h-.43a22.66,22.66,0,0,1-7.45,7.57,20.66,20.66,0,0,1-11.23,2.93,27.6,27.6,0,0,1-8.47-1.14,12,12,0,0,1-5.77-3.95,18.36,18.36,0,0,1-3.35-7.52,53.72,53.72,0,0,1-1.08-11.75V55.32h-7.25V48.06h15.8V77.4a75.4,75.4,0,0,0,.38,7.95,18,18,0,0,0,1.56,6A8,8,0,0,0,402.82,95,13,13,0,0,0,409,96.23a14.13,14.13,0,0,0,9.72-3.68,23.41,23.41,0,0,0,6.28-9.2v-28h-6.92Z"/><path class="cls-3" d="M148.34,34.75a37.68,37.68,0,0,0-37.29,32.62H100.23a37.63,37.63,0,1,0-2.4,19.07H86.69A27.6,27.6,0,1,1,90.1,67.37H67a5,5,0,1,0,0,10h77.24a5,5,0,0,0,0-10H121.18a27.64,27.64,0,1,1,3.41,19.07H113.45a37.62,37.62,0,1,0,34.89-51.69Z"/></svg>